<svg width="128" height="128" viewBox="0 0 128 128" fill="none" xmlns="http://www.w3.org/2000/svg">
  <defs>
    <linearGradient id="pawShellGrab" x1="20" y1="18" x2="102" y2="114" gradientUnits="userSpaceOnUse">
      <stop stop-color="#F6D38F"/>
      <stop offset="1" stop-color="#CF8740"/>
    </linearGradient>
    <linearGradient id="beanGrab" x1="30" y1="40" x2="90" y2="98" gradientUnits="userSpaceOnUse">
      <stop stop-color="#F2B567"/>
      <stop offset="1" stop-color="#CB7420"/>
    </linearGradient>
    <filter id="shadowGrab" x="10" y="12" width="108" height="110" filterUnits="userSpaceOnUse" color-interpolation-filters="sRGB">
      <feDropShadow dx="0" dy="8" stdDeviation="6" flood-color="#5A3313" flood-opacity="0.18"/>
    </filter>
  </defs>
  <g filter="url(#shadowGrab)">
    <path d="M64 30C72 19 88 17 96 28C100 34 101 41 99 47C106 48 111 54 111 62C111 71 107 78 101 84C96 89 93 99 85 103C78 107 70 104 64 100C58 104 50 107 43 103C35 99 32 89 27 84C21 78 17 71 17 62C17 54 22 48 29 47C27 41 28 34 32 28C40 17 56 19 64 30Z" fill="url(#pawShellGrab)" stroke="#71411A" stroke-width="4" stroke-linejoin="round"/>
    <ellipse cx="34" cy="46" rx="10.5" ry="12" transform="rotate(-16 34 46)" fill="url(#beanGrab)" stroke="#71411A" stroke-width="4"/>
    <ellipse cx="53" cy="36" rx="10" ry="13" transform="rotate(-7 53 36)" fill="url(#beanGrab)" stroke="#71411A" stroke-width="4"/>
    <ellipse cx="72" cy="36" rx="10" ry="13" transform="rotate(7 72 36)" fill="url(#beanGrab)" stroke="#71411A" stroke-width="4"/>
    <ellipse cx="91" cy="46" rx="10.5" ry="12" transform="rotate(16 91 46)" fill="url(#beanGrab)" stroke="#71411A" stroke-width="4"/>
    <path d="M64 56C81 56 92 67 88 84C86 93 77 98 64 99C51 98 42 93 40 84C36 67 47 56 64 56Z" fill="url(#beanGrab)" stroke="#71411A" stroke-width="4" stroke-linejoin="round"/>
    <path d="M30 61C35 54 39 51 44 50" stroke="#71411A" stroke-width="4" stroke-linecap="round"/>
    <path d="M98 61C93 54 89 51 84 50" stroke="#71411A" stroke-width="4" stroke-linecap="round"/>
    <path d="M45 25C48 22 51 23 53 26" stroke="#FFF6E5" stroke-width="4" stroke-linecap="round"/>
    <path d="M57 61C62 58 66 59 68 62" stroke="#FFF6E5" stroke-width="5" stroke-linecap="round"/>
  </g>
</svg>
